<svg width="30" height="30" viewBox="0 0 30 30" fill="none" xmlns="http://www.w3.org/2000/svg">
<path d="M25.2813 15.6575C24.5488 11.7562 24.1838 9.805 22.7938 8.6525C21.4075 7.5 19.4225 7.5 15.4538 7.5H14.5513C10.5825 7.5 8.59754 7.5 7.20879 8.6525C5.82129 9.805 5.45504 11.7562 4.72254 15.6575C3.69504 21.1437 3.18004 23.8863 4.68004 25.6938C6.17879 27.5 8.96879 27.5 14.55 27.5H15.4525C21.0338 27.5 23.825 27.5 25.3238 25.6938C26.1938 24.6438 26.3863 23.2812 26.1938 21.25M11.2513 7.5V6.25C11.2513 5.25544 11.6464 4.30161 12.3496 3.59835C13.0529 2.89509 14.0067 2.5 15.0013 2.5C15.9958 2.5 16.9497 2.89509 17.6529 3.59835C18.3562 4.30161 18.7513 5.25544 18.7513 6.25V7.5" stroke="black" stroke-width="1.5" stroke-linecap="round"/>
</svg>
