<svg width="125" height="43" viewBox="0 0 125 43" fill="none" xmlns="http://www.w3.org/2000/svg">
<path d="M12.3691 30C11.6855 30 11.3438 29.6338 11.3438 28.9014V10.0928C11.3438 9.36035 11.6855 8.99414 12.3691 8.99414H24.9375C25.6699 8.99414 26.0361 9.31152 26.0361 9.94629V11.6748C26.0361 12.3096 25.6699 12.627 24.9375 12.627H15.6211V17.2852H24.1611C24.8936 17.2852 25.2598 17.6025 25.2598 18.2373V19.9658C25.2598 20.6006 24.8936 20.918 24.1611 20.918H15.6211V26.3672H25.4062C26.1387 26.3672 26.5049 26.6846 26.5049 27.3193V29.0479C26.5049 29.6826 26.1387 30 25.4062 30H12.3691ZM38.7211 30C38.1352 30 37.8422 29.707 37.8422 29.1211V11.8213C37.8422 11.3818 37.9447 10.9814 38.1498 10.6201L39.2777 8.64258C39.4926 8.27148 39.7465 8.08594 40.0395 8.08594H41.0648C41.6508 8.08594 41.9438 8.37891 41.9438 8.96484V29.1211C41.9438 29.707 41.6508 30 41.0648 30H38.7211ZM53.2078 22.3096C53.2078 19.8389 53.823 17.8906 55.0535 16.4648C56.2938 15.0391 58.0418 14.3262 60.2977 14.3262C62.9148 14.3262 64.8582 15 66.1277 16.3477C67.3973 17.6953 68.032 19.8633 68.032 22.8516C68.032 23.4375 67.7586 23.7305 67.2117 23.7305H57.5438C57.7 25.3516 58.1004 26.3721 58.7449 26.792C59.3895 27.2119 60.1365 27.4219 60.9861 27.4219C61.7967 27.4219 62.4168 27.3145 62.8465 27.0996C63.2762 26.8848 63.6375 26.5918 63.9305 26.2207C64.2625 25.791 64.6727 25.7227 65.1609 26.0156L66.6258 26.9092C67.202 27.2607 67.285 27.6807 66.8748 28.1689C66.2791 28.8818 65.5809 29.4141 64.7801 29.7656C63.9793 30.1172 62.7146 30.293 60.9861 30.293C58.1834 30.293 56.1863 29.5801 54.9949 28.1543C53.8035 26.7285 53.2078 24.7803 53.2078 22.3096ZM57.5584 20.8008H63.9305C63.9305 19.7461 63.6668 18.8867 63.1395 18.2227C62.6121 17.5488 61.7723 17.2119 60.6199 17.2119C59.702 17.2119 58.9744 17.5342 58.4373 18.1787C57.9002 18.8135 57.6072 19.6875 57.5584 20.8008ZM79.0178 28.9746C78.5393 28.6328 78.4074 28.2666 78.6223 27.876L79.3693 26.5137C79.633 26.0254 80.0432 25.9668 80.5998 26.3379C81.1564 26.709 81.8107 26.9824 82.5627 27.1582C83.3244 27.334 84.0178 27.4219 84.6428 27.4219C85.0822 27.4219 85.4924 27.3779 85.8732 27.29C86.2541 27.2021 86.5764 27.0312 86.84 26.7773C87.1037 26.5234 87.2355 26.1523 87.2355 25.6641C87.2355 25.3711 87.1574 25.1221 87.0012 24.917C86.8449 24.7119 86.6447 24.5557 86.4006 24.4482C86.1564 24.3408 85.8977 24.2529 85.6242 24.1846C85.2629 24.0967 84.7404 23.9502 84.0568 23.7451C83.383 23.54 82.7336 23.3008 82.1086 23.0273C81.591 22.8027 81.0832 22.4902 80.5852 22.0898C80.0969 21.6797 79.7355 21.2256 79.5012 20.7275C79.2766 20.2295 79.1643 19.6143 79.1643 18.8818C79.1643 17.8955 79.4475 17.0312 80.0139 16.2891C80.59 15.5469 81.3322 15.0342 82.2404 14.751C83.1486 14.4678 84.2814 14.3262 85.6389 14.3262C86.5568 14.3262 87.4504 14.458 88.3195 14.7217C89.1887 14.9854 89.8088 15.2344 90.1799 15.4688C90.7658 15.8398 90.9123 16.2354 90.6193 16.6553L89.7258 17.959C89.4523 18.3496 89.0129 18.3789 88.4074 18.0469C87.9484 17.793 87.4943 17.5879 87.0451 17.4316C86.6057 17.2754 86.1125 17.1973 85.5656 17.1973C85.1945 17.1973 84.8381 17.2363 84.4963 17.3145C84.1545 17.3926 83.8615 17.5391 83.6174 17.7539C83.383 17.9688 83.2658 18.252 83.2658 18.6035C83.2658 18.9746 83.3732 19.2676 83.5881 19.4824C83.8127 19.6875 84.0666 19.8389 84.3498 19.9365C84.6428 20.0342 84.9211 20.127 85.1848 20.2148C85.7316 20.3906 86.2834 20.5615 86.84 20.7275C87.3967 20.8838 87.9631 21.0742 88.5393 21.2988C89.0373 21.4941 89.5207 21.7725 89.9895 22.1338C90.4582 22.4951 90.8 22.9541 91.0148 23.5107C91.2297 24.0674 91.3371 24.7021 91.3371 25.415C91.3371 26.3623 91.0539 27.2412 90.4875 28.0518C89.9211 28.8623 89.174 29.4385 88.2463 29.7803C87.3186 30.1221 86.2395 30.293 85.009 30.293C83.632 30.293 82.4602 30.1953 81.4934 30C80.5266 29.8047 79.7014 29.4629 79.0178 28.9746ZM101.854 28.9746C101.376 28.6328 101.244 28.2666 101.459 27.876L102.206 26.5137C102.469 26.0254 102.879 25.9668 103.436 26.3379C103.993 26.709 104.647 26.9824 105.399 27.1582C106.161 27.334 106.854 27.4219 107.479 27.4219C107.919 27.4219 108.329 27.3779 108.71 27.29C109.09 27.2021 109.413 27.0312 109.676 26.7773C109.94 26.5234 110.072 26.1523 110.072 25.6641C110.072 25.3711 109.994 25.1221 109.838 24.917C109.681 24.7119 109.481 24.5557 109.237 24.4482C108.993 24.3408 108.734 24.2529 108.461 24.1846C108.099 24.0967 107.577 23.9502 106.893 23.7451C106.219 23.54 105.57 23.3008 104.945 23.0273C104.427 22.8027 103.92 22.4902 103.421 22.0898C102.933 21.6797 102.572 21.2256 102.338 20.7275C102.113 20.2295 102.001 19.6143 102.001 18.8818C102.001 17.8955 102.284 17.0312 102.85 16.2891C103.426 15.5469 104.169 15.0342 105.077 14.751C105.985 14.4678 107.118 14.3262 108.475 14.3262C109.393 14.3262 110.287 14.458 111.156 14.7217C112.025 14.9854 112.645 15.2344 113.016 15.4688C113.602 15.8398 113.749 16.2354 113.456 16.6553L112.562 17.959C112.289 18.3496 111.849 18.3789 111.244 18.0469C110.785 17.793 110.331 17.5879 109.881 17.4316C109.442 17.2754 108.949 17.1973 108.402 17.1973C108.031 17.1973 107.674 17.2363 107.333 17.3145C106.991 17.3926 106.698 17.5391 106.454 17.7539C106.219 17.9688 106.102 18.252 106.102 18.6035C106.102 18.9746 106.21 19.2676 106.424 19.4824C106.649 19.6875 106.903 19.8389 107.186 19.9365C107.479 20.0342 107.757 20.127 108.021 20.2148C108.568 20.3906 109.12 20.5615 109.676 20.7275C110.233 20.8838 110.799 21.0742 111.376 21.2988C111.874 21.4941 112.357 21.7725 112.826 22.1338C113.295 22.4951 113.636 22.9541 113.851 23.5107C114.066 24.0674 114.173 24.7021 114.173 25.415C114.173 26.3623 113.89 27.2412 113.324 28.0518C112.757 28.8623 112.01 29.4385 111.083 29.7803C110.155 30.1221 109.076 30.293 107.845 30.293C106.468 30.293 105.296 30.1953 104.33 30C103.363 29.8047 102.538 29.4629 101.854 28.9746Z" fill="black"/>
<line x1="1" y1="23" x2="124" y2="23" stroke="black" stroke-width="2" stroke-linecap="round"/>
</svg>
